<svg width="39" height="39" viewBox="0 0 39 39" fill="none" xmlns="http://www.w3.org/2000/svg">
<path d="M34.7283 14.0708C34.8752 14.3905 34.6308 14.7395 34.279 14.7395H4.27378C3.99314 14.7395 3.76562 14.512 3.76562 14.2314V10.2455C3.76562 6.3708 6.90986 3.22656 10.7846 3.22656H14.4687C17.0572 3.22656 17.867 4.0682 18.8992 5.44976L21.1224 8.40343C21.6147 9.05451 21.6782 9.13391 22.5993 9.13391H27.0298C30.4428 9.13391 33.3884 11.1547 34.7283 14.0708Z" fill="#00B598"/>
<path d="M35.4955 17.6236C35.4946 17.3437 35.2673 17.1172 34.9873 17.1172L4.27378 17.1177C3.99313 17.1177 3.76562 17.3453 3.76562 17.6259V26.4869C3.76562 31.1715 7.57682 34.9827 12.2614 34.9827H27.0298C31.7144 34.9827 35.5256 31.1715 35.5256 26.4869L35.4955 17.6236ZM23.6156 26.6457H20.9319V29.4247C20.9319 30.0758 20.3919 30.6157 19.7409 30.6157C19.0739 30.6157 18.5499 30.0758 18.5499 29.4247V26.6457H15.6756C15.0245 26.6457 14.4846 26.1058 14.4846 25.4547C14.4846 24.8037 15.0245 24.2637 15.6756 24.2637H18.5499V21.4847C18.5499 20.8337 19.0739 20.2937 19.7409 20.2937C20.3919 20.2937 20.9319 20.8337 20.9319 21.4847V24.2637H23.6156C24.2667 24.2637 24.8066 24.8037 24.8066 25.4547C24.8066 26.1058 24.2667 26.6457 23.6156 26.6457Z" fill="#00B598"/>
</svg>
