<svg width="38" height="38" viewBox="0 0 38 38" fill="none" xmlns="http://www.w3.org/2000/svg">
<path d="M32.387 10.4628V32.1723C32.387 33.0578 32.0353 33.907 31.4092 34.5331C30.7831 35.1592 29.9339 35.5109 29.0484 35.5109H8.43625C7.5508 35.5109 6.70162 35.1592 6.07551 34.5331C5.4494 33.907 5.09766 33.0578 5.09766 32.1723V5.46359C5.09766 4.57814 5.4494 3.72896 6.07551 3.10285C6.70162 2.47674 7.5508 2.125 8.43625 2.125H24.042C24.4806 2.12494 24.915 2.21131 25.3202 2.37919C25.7254 2.54706 26.0936 2.79313 26.4037 3.10335L31.4087 8.10253C32.0348 8.72844 32.3868 9.57743 32.387 10.4628Z" fill="#330000"/>
<path d="M24.2666 2.85001C24.5335 2.84952 24.7979 2.90185 25.0446 3.00399C25.2912 3.10613 25.5152 3.25606 25.7036 3.44515L30.9205 8.65626C31.1096 8.84469 31.2595 9.06868 31.3617 9.31532C31.4638 9.56195 31.5162 9.82636 31.5157 10.0933V32.7522C31.5157 33.2912 31.3016 33.8081 30.9205 34.1892C30.5393 34.5703 30.0224 34.7844 29.4835 34.7844H8.00035C7.46138 34.7844 6.94449 34.5703 6.56338 34.1892C6.18227 33.8081 5.96816 33.2912 5.96816 32.7522V4.8822C5.96816 4.34323 6.18227 3.82633 6.56338 3.44522C6.94449 3.06412 7.46138 2.85001 8.00035 2.85001H24.2666ZM24.2666 1.39845H8.00035C7.0764 1.39845 6.1903 1.76548 5.53697 2.41881C4.88364 3.07214 4.5166 3.95825 4.5166 4.8822V32.7522C4.5166 33.6761 4.88364 34.5623 5.53697 35.2156C6.1903 35.8689 7.0764 36.2359 8.00035 36.2359H29.4835C30.4074 36.2359 31.2935 35.8689 31.9469 35.2156C32.6002 34.5623 32.9672 33.6761 32.9672 32.7522V10.0991C32.9683 9.6412 32.8792 9.18756 32.7048 8.76413C32.5305 8.34071 32.2744 7.95581 31.9511 7.63146L26.7255 2.41454C26.4012 2.09131 26.0163 1.83519 25.5928 1.66084C25.1694 1.48649 24.7158 1.39733 24.2579 1.39845H24.2666Z" fill="#FF9A00"/>
<path d="M24.3925 10.6848C24.2209 10.6922 24.0495 10.6651 23.8885 10.6053C23.7275 10.5455 23.58 10.4541 23.4548 10.3364C23.3331 10.2116 23.2384 10.063 23.1767 9.8999C23.115 9.73681 23.0876 9.56273 23.0963 9.38857C23.0882 9.21207 23.1168 9.03582 23.1803 8.87093C23.2438 8.70605 23.3407 8.55609 23.465 8.43054C23.5911 8.31065 23.74 8.21718 23.9027 8.15561C24.0655 8.09404 24.239 8.06562 24.4129 8.072C24.5871 8.06298 24.7612 8.09018 24.9244 8.15189C25.0875 8.21361 25.2361 8.30849 25.3607 8.43054C25.4795 8.5591 25.5715 8.71002 25.6313 8.87451C25.6911 9.039 25.7176 9.21375 25.7091 9.38857C25.7178 9.56273 25.6904 9.73681 25.6287 9.8999C25.567 10.063 25.4723 10.2116 25.3506 10.3364C25.222 10.4552 25.0711 10.5472 24.9066 10.607C24.7421 10.6668 24.5674 10.6933 24.3925 10.6848Z" fill="#FF9A00"/>
<path d="M18.632 17.0764H14.8449L13.868 20.1247C13.8549 20.219 13.7969 20.2698 13.6894 20.2698H11.9113C11.7922 20.2698 11.7516 20.2118 11.7864 20.0927L15.2586 9.70391C15.3573 9.40024 15.4064 9.08261 15.4037 8.7633C15.4015 8.74887 15.4027 8.73413 15.4073 8.72026C15.4118 8.70639 15.4195 8.69378 15.4299 8.68346C15.4402 8.67314 15.4528 8.6654 15.4667 8.66086C15.4805 8.65632 15.4953 8.65511 15.5097 8.65733H17.9599C18.0311 8.65733 18.0717 8.68636 18.0833 8.74588L21.9241 20.1116C21.959 20.2176 21.9241 20.2698 21.8356 20.2698H19.8412C19.8042 20.2719 19.7675 20.263 19.7357 20.2441C19.7039 20.2252 19.6784 20.1973 19.6626 20.1639L18.632 17.0764ZM15.2716 15.3345H18.2227L16.7101 10.3992L15.2716 15.3345Z" fill="#FF9A00"/>
<path d="M23.3872 20.1014V11.7012C23.3842 11.6815 23.386 11.6613 23.3922 11.6424C23.3985 11.6234 23.4091 11.6062 23.4232 11.5921C23.4373 11.578 23.4545 11.5674 23.4735 11.5611C23.4924 11.5549 23.5126 11.5531 23.5323 11.5561H25.2742C25.2939 11.5531 25.3141 11.5549 25.333 11.5611C25.352 11.5674 25.3692 11.578 25.3833 11.5921C25.3974 11.6062 25.4081 11.6234 25.4143 11.6424C25.4206 11.6613 25.4223 11.6815 25.4194 11.7012V20.1203C25.4223 20.14 25.4206 20.1602 25.4143 20.1791C25.4081 20.1981 25.3974 20.2153 25.3833 20.2294C25.3692 20.2435 25.352 20.2542 25.333 20.2604C25.3141 20.2667 25.2939 20.2684 25.2742 20.2655H23.5512C23.5289 20.2686 23.5062 20.2665 23.4849 20.2594C23.4636 20.2523 23.4442 20.2403 23.4283 20.2244C23.4124 20.2085 23.4004 20.1891 23.3932 20.1677C23.3861 20.1464 23.384 20.1237 23.3872 20.1014Z" fill="#FF9A00"/>
<path d="M18.6839 29.8449H16.9522L16.5051 31.2326C16.5051 31.2747 16.4732 31.2964 16.4238 31.2964H15.6109C15.5572 31.2964 15.5383 31.2703 15.5543 31.2166L17.1235 26.5542C17.1679 26.4134 17.1895 26.2663 17.1873 26.1187C17.1866 26.1121 17.1874 26.1054 17.1896 26.0992C17.1919 26.0929 17.1955 26.0873 17.2003 26.0827C17.205 26.0781 17.2108 26.0746 17.2171 26.0725C17.2234 26.0705 17.2301 26.0699 17.2367 26.0708H18.3747C18.3873 26.069 18.4002 26.0721 18.4107 26.0793C18.4211 26.0866 18.4285 26.0975 18.4313 26.11L20.1935 31.2253C20.2109 31.2732 20.1935 31.2964 20.1529 31.2964H19.2355C19.2187 31.2975 19.202 31.2935 19.1875 31.2849C19.173 31.2764 19.1614 31.2637 19.1542 31.2485L18.6839 29.8449ZM17.1452 28.9739H18.4952C18.472 29.0073 18.0931 27.8025 18.0075 27.5224C17.9218 27.2422 17.8623 27.0346 17.8115 26.8706C17.7462 27.145 17.527 27.8838 17.1452 28.9739Z" fill="white"/>
<path d="M21.9359 26.1347V31.2253C21.9359 31.2733 21.9142 31.2965 21.8721 31.2965H21.1289C21.0868 31.2965 21.065 31.2733 21.065 31.2253V26.1347C21.0638 26.1261 21.0646 26.1172 21.0674 26.1089C21.0702 26.1006 21.0748 26.0931 21.081 26.0869C21.0872 26.0807 21.0948 26.076 21.1031 26.0733C21.1114 26.0705 21.1202 26.0696 21.1289 26.0709H21.8808C21.9171 26.0709 21.9359 26.0926 21.9359 26.1347Z" fill="white"/>
</svg>
