<svg width="25" height="25" viewBox="0 0 25 25" fill="none" xmlns="http://www.w3.org/2000/svg">
<rect x="0.536133" y="0.40625" width="24" height="24" rx="4" fill="#E7F8F5"/>
<path d="M17.0358 15.2839C18.1277 15.8324 19.0639 16.7127 19.7472 17.8135C19.8825 18.0315 19.9502 18.1404 19.9736 18.2914C20.0211 18.5981 19.8114 18.9751 19.5257 19.0965C19.3852 19.1563 19.227 19.1562 18.9108 19.1562M15.5358 12.0554C16.6471 11.5032 17.4108 10.3564 17.4108 9.03125C17.4108 7.7061 16.6471 6.55933 15.5358 6.00707M14.0358 9.03125C14.0358 10.8952 12.5247 12.4062 10.6608 12.4062C8.7968 12.4062 7.28577 10.8952 7.28577 9.03125C7.28577 7.16729 8.7968 5.65625 10.6608 5.65625C12.5247 5.65625 14.0358 7.16729 14.0358 9.03125ZM5.45519 17.61C6.65092 15.8147 8.5378 14.6562 10.6608 14.6562C12.7837 14.6562 14.6706 15.8147 15.8663 17.61C16.1283 18.0033 16.2593 18.2 16.2442 18.4512C16.2325 18.6468 16.1042 18.8862 15.9479 19.0044C15.7472 19.1563 15.4711 19.1562 14.919 19.1562H6.40253C5.85039 19.1562 5.57432 19.1563 5.3736 19.0044C5.2173 18.8862 5.08908 18.6468 5.07734 18.4512C5.06226 18.2 5.19324 18.0033 5.45519 17.61Z" stroke="#00B598" stroke-width="1.5" stroke-linecap="round" stroke-linejoin="round"/>
</svg>
