<svg width="25" height="25" viewBox="0 0 25 25" fill="none" xmlns="http://www.w3.org/2000/svg">
<rect x="0.743164" y="0.257812" width="24" height="24" rx="4" fill="#E7F8F5"/>
<path d="M20.2432 10.5885H5.24316M16.0765 3.92188V7.25521M9.40983 3.92188V7.25521M10.2432 15.5885L11.9098 17.2552L15.6598 13.5052M9.24316 20.5885H16.2432C17.6433 20.5885 18.3434 20.5885 18.8781 20.3161C19.3485 20.0764 19.731 19.6939 19.9707 19.2235C20.2432 18.6887 20.2432 17.9887 20.2432 16.5885V9.58854C20.2432 8.18841 20.2432 7.48834 19.9707 6.95357C19.731 6.48316 19.3485 6.10071 18.8781 5.86103C18.3434 5.58854 17.6433 5.58854 16.2432 5.58854H9.24316C7.84303 5.58854 7.14297 5.58854 6.60819 5.86103C6.13778 6.10071 5.75533 6.48316 5.51565 6.95357C5.24316 7.48834 5.24316 8.18841 5.24316 9.58854V16.5885C5.24316 17.9887 5.24316 18.6887 5.51565 19.2235C5.75533 19.6939 6.13778 20.0764 6.60819 20.3161C7.14297 20.5885 7.84303 20.5885 9.24316 20.5885Z" stroke="#00B598" stroke-width="1.5" stroke-linecap="round" stroke-linejoin="round"/>
</svg>
