<svg width="25" height="25" viewBox="0 0 25 25" fill="none" xmlns="http://www.w3.org/2000/svg">
<rect x="0.158203" y="0.625" width="24" height="24" rx="4" fill="#E7F8F5"/>
<path d="M8.7832 5.875H14.1082C15.7884 5.875 16.6284 5.875 17.2702 6.20198C17.8347 6.4896 18.2936 6.94854 18.5812 7.51303C18.9082 8.15476 18.9082 8.99484 18.9082 10.675V16M7.8082 19.375H13.8832C14.7233 19.375 15.1433 19.375 15.4642 19.2115C15.7464 19.0677 15.9759 18.8382 16.1197 18.556C16.2832 18.2351 16.2832 17.8151 16.2832 16.975V10.9C16.2832 10.0599 16.2832 9.63988 16.1197 9.31901C15.9759 9.03677 15.7464 8.8073 15.4642 8.66349C15.1433 8.5 14.7233 8.5 13.8832 8.5H7.8082C6.96812 8.5 6.54808 8.5 6.22722 8.66349C5.94497 8.8073 5.7155 9.03677 5.57169 9.31901C5.4082 9.63988 5.4082 10.0599 5.4082 10.9V16.975C5.4082 17.8151 5.4082 18.2351 5.57169 18.556C5.7155 18.8382 5.94497 19.0677 6.22722 19.2115C6.54808 19.375 6.96812 19.375 7.8082 19.375Z" stroke="#00B598" stroke-width="1.5" stroke-linecap="round" stroke-linejoin="round"/>
</svg>
