<svg width="38" height="38" viewBox="0 0 38 38" fill="none" xmlns="http://www.w3.org/2000/svg">
<path d="M32.4328 10.3469V34.1031C32.4328 35.0861 31.636 35.8829 30.653 35.8829H8.57866C7.59569 35.8829 6.79883 35.0861 6.79883 34.1031V3.5064C6.79883 2.52342 7.59569 1.72656 8.57866 1.72656H23.8123L32.4328 10.3469Z" fill="white"/>
<g opacity="0.5">
<path d="M29.668 7.59375V35.8943H30.6528C31.6357 35.8943 32.4326 35.0974 32.4326 34.1145V10.3583L29.668 7.59375Z" fill="#EAEAEA"/>
</g>
<g opacity="0.5">
<path d="M9.96677 1.72656H8.57866C7.59575 1.72656 6.79883 2.52342 6.79883 3.5064V34.1031C6.79883 35.0861 7.59576 35.8829 8.57866 35.8829H9.96677V1.72656Z" fill="#EAEAEA"/>
</g>
<g opacity="0.5">
<path d="M12.1777 1.72656H13.8981V35.8829H12.1777V1.72656Z" fill="#EAEAEA"/>
</g>
<path d="M32.434 10.3469H25.5933C24.6103 10.3469 23.8135 9.55007 23.8135 8.56709V1.72656L32.434 10.3469Z" fill="#FF3333"/>
<path d="M20.2995 24.4638V29.9465C20.2995 30.6428 19.735 31.2072 19.0388 31.2072H5.82054C5.21689 31.2072 4.72754 30.7179 4.72754 30.1142V24.2961C4.72754 23.6925 5.21689 23.2031 5.82054 23.2031H19.0388C19.735 23.2031 20.2995 23.7676 20.2995 24.4638Z" fill="#FF3333"/>
<path d="M8.38349 23.2031V31.207H5.82054C5.21689 31.207 4.72754 30.7177 4.72754 30.114V24.2961C4.72754 23.6925 5.21689 23.2031 5.82054 23.2031H8.38349Z" fill="#EF0A0A"/>
<path d="M10.9287 23.2031H12.9147V31.2072H10.9287V23.2031Z" fill="#EF0A0A"/>
<path d="M9.7824 25.5078C10.1501 25.5078 10.4356 25.5945 10.6395 25.7677C10.8428 25.9409 10.9448 26.1947 10.9448 26.5288C10.9448 26.8631 10.8428 27.1185 10.6395 27.2946C10.4356 27.471 10.1501 27.5591 9.7824 27.5591H9.05284V28.5755C9.05284 28.6088 9.0411 28.6377 9.01655 28.6619C8.992 28.6865 8.96318 28.6985 8.93009 28.6985H8.56078C8.52716 28.6985 8.49834 28.6865 8.47432 28.6619C8.44977 28.6377 8.4375 28.6088 8.4375 28.5755V25.6308C8.4375 25.5975 8.44977 25.5687 8.47432 25.5444C8.49834 25.5201 8.52716 25.5078 8.56078 25.5078L9.7824 25.5078ZM9.05284 26.9893H9.75945C9.9329 26.9893 10.0711 26.9549 10.1741 26.8866C10.2777 26.8183 10.3294 26.699 10.3294 26.5288C10.3294 26.3588 10.2777 26.2411 10.1741 26.1755C10.0711 26.1104 9.9329 26.0775 9.75945 26.0775H9.05284V26.9893Z" fill="white"/>
<path d="M12.6908 25.5078C12.9155 25.5078 13.1108 25.5374 13.2762 25.5967C13.4417 25.6559 13.5799 25.7402 13.6909 25.8496C13.8019 25.959 13.8868 26.0911 13.9466 26.2462C14.0058 26.4012 14.041 26.5744 14.0533 26.766C14.0656 26.9907 14.0656 27.2156 14.0533 27.4406C14.041 27.6319 14.0058 27.8051 13.9466 27.9601C13.8868 28.1152 13.8025 28.2473 13.6936 28.3567C13.5842 28.4661 13.4481 28.5504 13.2853 28.6096C13.1225 28.6689 12.932 28.6985 12.7132 28.6985H11.5647C11.5311 28.6985 11.5022 28.6865 11.4782 28.6619C11.4537 28.6377 11.4414 28.6088 11.4414 28.5755V25.6308C11.4414 25.5975 11.4537 25.5687 11.4782 25.5444C11.5022 25.5201 11.5311 25.5078 11.5647 25.5078L12.6908 25.5078ZM13.438 26.766C13.4321 26.6686 13.4129 26.5784 13.3808 26.4946C13.3494 26.4111 13.3019 26.3382 13.24 26.2758C13.1775 26.2136 13.0991 26.1651 13.0051 26.1301C12.9107 26.0951 12.7986 26.0775 12.6678 26.0775H12.0568V28.1288H12.6908C12.8151 28.1288 12.9229 28.1112 13.0142 28.0762C13.1055 28.0415 13.1812 27.9935 13.2421 27.9326C13.3029 27.8721 13.3494 27.799 13.3809 27.7138C13.4129 27.629 13.4321 27.5377 13.438 27.4406C13.4502 27.2156 13.4502 26.9907 13.438 26.766Z" fill="white"/>
<path d="M16.7185 25.5078C16.7522 25.5078 16.781 25.5201 16.8055 25.5444C16.8296 25.5686 16.8418 25.5975 16.8418 25.6308V25.9545C16.8418 25.9879 16.8296 26.017 16.8055 26.0412C16.781 26.0655 16.7522 26.0775 16.7185 26.0775H15.2648V26.9619H16.6278C16.6609 26.9619 16.6897 26.9741 16.7143 26.9984C16.7383 27.0227 16.7506 27.0515 16.7506 27.0849V27.4086C16.7506 27.4419 16.7383 27.471 16.7143 27.4953C16.6897 27.5196 16.6609 27.5316 16.6278 27.5316H15.2648V28.5755C15.2648 28.6088 15.2525 28.6377 15.2285 28.6619C15.2039 28.6865 15.1751 28.6985 15.1415 28.6985H14.7727C14.7391 28.6985 14.7103 28.6865 14.6857 28.6619C14.6617 28.6377 14.6494 28.6088 14.6494 28.5755V25.6308C14.6494 25.5975 14.6617 25.5687 14.6857 25.5444C14.7103 25.5201 14.7391 25.5078 14.7727 25.5078L16.7185 25.5078Z" fill="white"/>
<path d="M24.2019 22.5468C23.577 22.5468 22.8807 22.2477 22.3102 21.6772C22.0106 21.3778 21.3701 19.9835 20.6478 18.2159C20.3996 18.1511 20.1421 18.0932 19.8766 18.0443C18.7948 17.8453 17.6383 17.7452 16.5746 17.7054C15.2708 19.1347 14.015 20.1335 13.5812 20.293C12.2971 20.7648 11.0109 20.3747 10.6538 19.4044C10.4729 18.9124 10.5725 18.3451 10.9268 17.8485C11.2414 17.4071 11.733 17.0474 12.3104 16.8352C12.7099 16.6885 14.2587 16.5644 16.093 16.6031C16.6163 16.0027 17.1452 15.3249 17.6188 14.5951C17.9903 14.023 18.3195 13.4209 18.6056 12.8309C17.9121 10.867 17.4053 9.25521 17.4053 8.88616C17.4053 7.5175 18.2152 6.44531 19.2492 6.44531C20.2811 6.44531 21.0894 7.5175 21.0894 8.88616C21.0894 9.32058 20.6427 11.0292 19.7784 12.9099C20.2979 14.337 20.9055 15.9258 21.4625 17.3121C23.3005 17.8821 24.5944 18.7515 24.9152 19.0722C25.3507 19.5077 25.6455 20.0409 25.7453 20.5735C25.8577 21.1734 25.709 21.7305 25.3373 22.1023C25.0377 22.4017 24.6371 22.5468 24.2019 22.5468ZM22.0188 18.6685C22.5154 19.8506 22.9162 20.7136 23.0878 20.9095C23.6285 21.4498 24.3142 21.5785 24.5645 21.3292C24.7188 21.175 24.6974 20.9159 24.671 20.775C24.6123 20.4612 24.4194 20.1223 24.1424 19.845C23.9633 19.666 23.1799 19.1339 22.0188 18.6685ZM11.6796 19.0274C11.8024 19.3602 12.4807 19.5328 13.2041 19.2673C13.3949 19.1878 14.1554 18.6044 15.0782 17.6865C13.8253 17.7014 12.8919 17.7911 12.6864 17.8615C12.3195 17.9963 12.0022 18.2228 11.8168 18.483C11.7335 18.5994 11.6054 18.8251 11.6796 19.0274ZM17.4683 16.6615C18.3497 16.7186 19.246 16.8168 20.0746 16.9695C20.1013 16.9743 20.128 16.9794 20.1546 16.9844C19.8027 16.0889 19.4456 15.1466 19.1102 14.2324C18.9306 14.5559 18.739 14.8769 18.5357 15.1901C18.2035 15.7022 17.8414 16.1962 17.4683 16.6615ZM19.2492 7.53832C18.8949 7.53832 18.4983 8.11471 18.4983 8.88616C18.5087 9.17222 18.802 10.1289 19.237 11.387C19.7341 10.1219 19.9913 9.11138 19.9964 8.88509C19.9964 8.11471 19.602 7.53832 19.2492 7.53832Z" fill="#F91C1C"/>
<path d="M32.7286 10.0798C32.6766 10.0249 24.1853 1.52819 24.0813 1.436C23.9945 1.35931 23.8661 1.32812 23.8098 1.32812H8.57901C7.37046 1.32812 6.3874 2.31119 6.3874 3.51973V22.7975H5.81929C4.99046 22.7975 4.31641 23.4716 4.31641 24.3004V30.1185C4.31641 30.947 4.99046 31.6213 5.81929 31.6213H6.3874V34.1182C6.3874 35.3236 7.37047 36.3042 8.57901 36.3042H30.652C31.8606 36.3042 32.8436 35.3236 32.8436 34.1182V10.3619C32.8436 10.285 32.8036 10.1589 32.7286 10.0798ZM24.2216 2.73014L31.443 9.951H25.5915C24.8361 9.951 24.2215 9.33646 24.2215 8.58128L24.2216 2.73014ZM5.13616 30.1185V24.3004C5.13616 23.9236 5.4425 23.6173 5.81929 23.6173H19.0375C19.5066 23.6173 19.8882 23.9989 19.8882 24.468V29.9509C19.8882 30.42 19.5066 30.8016 19.0375 30.8016C14.5811 30.8016 12.2012 30.8016 5.81929 30.8016C5.44249 30.8016 5.13616 30.4953 5.13616 30.1185ZM32.0239 34.1182C32.0239 34.8715 31.4085 35.4845 30.652 35.4845H8.57901C7.8225 35.4845 7.20715 34.8715 7.20715 34.1182V31.6213H19.0375C19.9587 31.6213 20.708 30.872 20.708 29.9509V24.468C20.708 23.5468 19.9587 22.7975 19.0375 22.7975H7.20715V3.51973C7.20715 2.76322 7.8225 2.14788 8.57901 2.14788H23.4018V8.58128C23.4018 9.78849 24.3841 10.7708 25.5915 10.7708H32.0239L32.0239 34.1182Z" fill="black"/>
</svg>
