<svg width="25" height="25" viewBox="0 0 25 25" fill="none" xmlns="http://www.w3.org/2000/svg">
<rect x="0.536133" y="0.578125" width="24" height="24" rx="4" fill="#E7F8F5"/>
<path d="M17.0361 12.5781C17.0361 15.0634 15.0214 17.0781 12.5361 17.0781C10.0509 17.0781 8.03613 15.0634 8.03613 12.5781M17.0361 12.5781C17.0361 10.0928 15.0214 8.07812 12.5361 8.07812C10.0509 8.07812 8.03613 10.0928 8.03613 12.5781M17.0361 12.5781C17.0361 15.8918 14.3498 18.5781 11.0361 18.5781C7.72242 18.5781 5.03613 15.8918 5.03613 12.5781M8.03613 12.5781C8.03613 9.26442 10.7224 6.57812 14.0361 6.57812C17.3498 6.57812 20.0361 9.26442 20.0361 12.5781M13.2861 12.5781C13.2861 12.9923 12.9503 13.3281 12.5361 13.3281C12.1219 13.3281 11.7861 12.9923 11.7861 12.5781C11.7861 12.1639 12.1219 11.8281 12.5361 11.8281C12.9503 11.8281 13.2861 12.1639 13.2861 12.5781Z" stroke="#00B598" stroke-width="1.5" stroke-linecap="round" stroke-linejoin="round"/>
</svg>
