<svg width="19" height="19" viewBox="0 0 19 19" fill="none" xmlns="http://www.w3.org/2000/svg">
<path d="M12.6033 17.9098H6.3964C2.81189 17.9098 2.14464 16.2417 1.97395 14.6201L1.39205 8.40539C1.3067 7.59073 1.28343 6.38814 2.09033 5.48813C2.78861 4.71226 3.94465 4.33984 5.62053 4.33984H13.3792C15.0628 4.33984 16.2189 4.72002 16.9094 5.48813C17.7163 6.38814 17.693 7.59073 17.6077 8.41315L17.0258 14.6123C16.8551 16.2417 16.1879 17.9098 12.6033 17.9098ZM5.62053 5.49589C4.30931 5.49589 3.40931 5.75192 2.95154 6.264C2.57137 6.68297 2.44723 7.32694 2.54809 8.28901L3.12999 14.5037C3.26189 15.7296 3.59551 16.746 6.3964 16.746H12.6033C15.3965 16.746 15.7379 15.7296 15.8698 14.496L16.4517 8.29677C16.5525 7.32694 16.4284 6.68297 16.0482 6.264C15.5904 5.75192 14.6904 5.49589 13.3792 5.49589H5.62053Z" fill="white"/>
<path d="M12.6033 5.49384C12.2852 5.49384 12.0214 5.23004 12.0214 4.91194V4.29124C12.0214 2.9102 12.0214 2.39037 10.1205 2.39037H8.87913C6.97826 2.39037 6.97826 2.9102 6.97826 4.29124V4.91194C6.97826 5.23004 6.71446 5.49384 6.39635 5.49384C6.07825 5.49384 5.81445 5.23004 5.81445 4.91194V4.29124C5.81445 2.92571 5.81445 1.22656 8.87913 1.22656H10.1205C13.1852 1.22656 13.1852 2.92571 13.1852 4.29124V4.91194C13.1852 5.23004 12.9214 5.49384 12.6033 5.49384Z" fill="white"/>
<path d="M9.49985 13.2556C7.36621 13.2556 7.36621 11.9366 7.36621 11.1452V10.3461C7.36621 9.25208 7.63001 8.98828 8.72398 8.98828H10.2757C11.3697 8.98828 11.6335 9.25208 11.6335 10.3461V11.1219C11.6335 11.9288 11.6335 13.2556 9.49985 13.2556ZM8.53001 10.1521C8.53001 10.2142 8.53001 10.284 8.53001 10.3461V11.1452C8.53001 11.9443 8.53001 12.0918 9.49985 12.0918C10.4697 12.0918 10.4697 11.9676 10.4697 11.1374V10.3461C10.4697 10.284 10.4697 10.2142 10.4697 10.1521C10.4076 10.1521 10.3378 10.1521 10.2757 10.1521H8.72398C8.66191 10.1521 8.59208 10.1521 8.53001 10.1521Z" fill="white"/>
<path d="M11.0516 11.7187C10.7646 11.7187 10.5085 11.5014 10.4775 11.2066C10.4387 10.8885 10.6637 10.5937 10.9818 10.5549C13.0301 10.2989 14.993 9.52298 16.6456 8.32039C16.9017 8.12642 17.2663 8.18849 17.4603 8.45228C17.6465 8.70832 17.5922 9.07298 17.3284 9.26694C15.5129 10.5859 13.3715 11.4316 11.1215 11.7187C11.0982 11.7187 11.0749 11.7187 11.0516 11.7187Z" fill="white"/>
<path d="M7.94786 11.7251C7.92459 11.7251 7.90131 11.7251 7.87803 11.7251C5.75215 11.4846 3.68059 10.7087 1.88833 9.48283C1.62453 9.30438 1.55471 8.93972 1.73316 8.67593C1.9116 8.41213 2.27626 8.3423 2.54006 8.52075C4.17714 9.638 6.0625 10.344 8.00217 10.569C8.32028 10.6078 8.55304 10.8949 8.51425 11.213C8.49097 11.5078 8.24269 11.7251 7.94786 11.7251Z" fill="white"/>
</svg>
