<svg width="20" height="19" viewBox="0 0 20 19" fill="none" xmlns="http://www.w3.org/2000/svg">
<path d="M7.10638 7.22287C7.64639 8.34759 8.38252 9.40171 9.31479 10.334C10.2471 11.2662 11.3012 12.0024 12.4259 12.5424C12.5226 12.5888 12.571 12.6121 12.6322 12.6299C12.8497 12.6933 13.1168 12.6478 13.301 12.5159C13.3529 12.4787 13.3972 12.4344 13.4859 12.3457C13.7572 12.0745 13.8928 11.9388 14.0292 11.8502C14.5435 11.5158 15.2065 11.5158 15.7209 11.8502C15.8572 11.9388 15.9929 12.0745 16.2641 12.3457L16.4153 12.4969C16.8276 12.9092 17.0338 13.1154 17.1458 13.3368C17.3685 13.7772 17.3685 14.2972 17.1458 14.7376C17.0338 14.959 16.8276 15.1651 16.4153 15.5775L16.293 15.6998C15.8821 16.1107 15.6766 16.3161 15.3973 16.4731C15.0873 16.6472 14.6059 16.7724 14.2504 16.7713C13.93 16.7704 13.711 16.7082 13.2731 16.5839C10.9196 15.9159 8.69875 14.6555 6.84599 12.8028C4.99323 10.95 3.73285 8.72921 3.06485 6.37569C2.94055 5.93775 2.8784 5.71878 2.87745 5.39839C2.87639 5.04287 3.00159 4.56145 3.17571 4.25149C3.33262 3.97215 3.53808 3.76669 3.949 3.35577L4.0713 3.23347C4.48363 2.82114 4.6898 2.61498 4.91122 2.50298C5.35157 2.28026 5.87161 2.28026 6.31196 2.50298C6.53338 2.61498 6.73954 2.82114 7.15187 3.23347L7.30307 3.38466C7.57431 3.65591 7.70994 3.79154 7.79861 3.92792C8.133 4.44223 8.133 5.10527 7.79861 5.61959C7.70994 5.75597 7.57431 5.8916 7.30307 6.16284C7.21437 6.25154 7.17003 6.29588 7.13291 6.34772C7.001 6.53193 6.95546 6.79903 7.01887 7.01655C7.03671 7.07776 7.05993 7.12613 7.10638 7.22287Z" stroke="white" stroke-width="1.55174" stroke-linecap="round" stroke-linejoin="round"/>
</svg>
