<svg width="106" height="113" viewBox="0 0 106 113" fill="none" xmlns="http://www.w3.org/2000/svg">
<path d="M53.0003 104.43C81.8379 104.43 105.215 81.0528 105.215 52.2151C105.215 23.3775 81.8379 0 53.0003 0C24.1627 0 0.785156 23.3775 0.785156 52.2151C0.785156 81.0528 24.1627 104.43 53.0003 104.43Z" fill="#CCF0EA"/>
<g filter="url(#filter0_d_1113_15042)">
<path d="M82.9374 29.9375H23.064C21.1415 29.9375 19.583 31.496 19.583 33.4185V106.52C19.583 108.442 21.1415 110.001 23.064 110.001H82.9374C84.8599 110.001 86.4184 108.442 86.4184 106.52V33.4185C86.4184 31.496 84.8599 29.9375 82.9374 29.9375Z" fill="white"/>
</g>
<path d="M46.0375 40.3828H27.9363C26.7828 40.3828 25.8477 41.3179 25.8477 42.4714C25.8477 43.6249 26.7828 44.56 27.9363 44.56H46.0375C47.191 44.56 48.1261 43.6249 48.1261 42.4714C48.1261 41.3179 47.191 40.3828 46.0375 40.3828Z" fill="#55CEBA"/>
<path d="M58.5691 49.4297H27.9363C26.7828 49.4297 25.8477 50.3648 25.8477 51.5183C25.8477 52.6718 26.7828 53.6069 27.9363 53.6069H58.5691C59.7226 53.6069 60.6577 52.6718 60.6577 51.5183C60.6577 50.3648 59.7226 49.4297 58.5691 49.4297Z" fill="#CCF0EA"/>
<path d="M46.0375 59.1797H27.9363C26.7828 59.1797 25.8477 60.1148 25.8477 61.2683C25.8477 62.4218 26.7828 63.3569 27.9363 63.3569H46.0375C47.191 63.3569 48.1261 62.4218 48.1261 61.2683C48.1261 60.1148 47.191 59.1797 46.0375 59.1797Z" fill="#55CEBA"/>
<path d="M58.5691 68.2266H27.9363C26.7828 68.2266 25.8477 69.1617 25.8477 70.3152C25.8477 71.4687 26.7828 72.4038 27.9363 72.4038H58.5691C59.7226 72.4038 60.6577 71.4687 60.6577 70.3152C60.6577 69.1617 59.7226 68.2266 58.5691 68.2266Z" fill="#CCF0EA"/>
<path d="M46.0375 77.9766H27.9363C26.7828 77.9766 25.8477 78.9117 25.8477 80.0652C25.8477 81.2187 26.7828 82.1538 27.9363 82.1538H46.0375C47.191 82.1538 48.1261 81.2187 48.1261 80.0652C48.1261 78.9117 47.191 77.9766 46.0375 77.9766Z" fill="#55CEBA"/>
<path d="M58.5691 87.0234H27.9363C26.7828 87.0234 25.8477 87.9585 25.8477 89.112C25.8477 90.2655 26.7828 91.2006 27.9363 91.2006H58.5691C59.7226 91.2006 60.6577 90.2655 60.6577 89.112C60.6577 87.9585 59.7226 87.0234 58.5691 87.0234Z" fill="#CCF0EA"/>
<defs>
<filter id="filter0_d_1113_15042" x="15.4058" y="23.6717" width="75.1894" height="88.4169" filterUnits="userSpaceOnUse" color-interpolation-filters="sRGB">
<feFlood flood-opacity="0" result="BackgroundImageFix"/>
<feColorMatrix in="SourceAlpha" type="matrix" values="0 0 0 0 0 0 0 0 0 0 0 0 0 0 0 0 0 0 127 0" result="hardAlpha"/>
<feOffset dy="-2.08861"/>
<feGaussianBlur stdDeviation="2.08861"/>
<feColorMatrix type="matrix" values="0 0 0 0 0.788235 0 0 0 0 0.803922 0 0 0 0 0.85098 0 0 0 0.349 0"/>
<feBlend mode="normal" in2="BackgroundImageFix" result="effect1_dropShadow_1113_15042"/>
<feBlend mode="normal" in="SourceGraphic" in2="effect1_dropShadow_1113_15042" result="shape"/>
</filter>
</defs>
</svg>
