<svg width="289" height="343" viewBox="0 0 289 343" fill="none" xmlns="http://www.w3.org/2000/svg">
<path d="M144.127 321.628C223.725 321.628 288.253 257.1 288.253 177.502C288.253 97.9026 223.725 33.375 144.127 33.375C64.5276 33.375 0 97.9026 0 177.502C0 257.1 64.5276 321.628 144.127 321.628Z" fill="#E7F8F5"/>
<g filter="url(#filter0_d_1113_13444)">
<path d="M226.76 116.008H61.4952C56.1886 116.008 51.8867 120.31 51.8867 125.616V327.393C51.8867 332.7 56.1886 337.002 61.4952 337.002H226.76C232.067 337.002 236.369 332.7 236.369 327.393V125.616C236.369 120.31 232.067 116.008 226.76 116.008Z" fill="white"/>
</g>
<path d="M124.91 144.836H74.9457C71.7618 144.836 69.1807 147.417 69.1807 150.601C69.1807 153.785 71.7618 156.366 74.9457 156.366H124.91C128.094 156.366 130.675 153.785 130.675 150.601C130.675 147.417 128.094 144.836 124.91 144.836Z" fill="#AAE6DD"/>
<path d="M159.5 169.82H74.9457C71.7618 169.82 69.1807 172.401 69.1807 175.585C69.1807 178.769 71.7618 181.35 74.9457 181.35H159.5C162.684 181.35 165.265 178.769 165.265 175.585C165.265 172.401 162.684 169.82 159.5 169.82Z" fill="#CCF0EA"/>
<path d="M124.91 196.719H74.9457C71.7618 196.719 69.1807 199.3 69.1807 202.484C69.1807 205.668 71.7618 208.249 74.9457 208.249H124.91C128.094 208.249 130.675 205.668 130.675 202.484C130.675 199.3 128.094 196.719 124.91 196.719Z" fill="#AAE6DD"/>
<path d="M159.5 221.703H74.9457C71.7618 221.703 69.1807 224.284 69.1807 227.468C69.1807 230.652 71.7618 233.233 74.9457 233.233H159.5C162.684 233.233 165.265 230.652 165.265 227.468C165.265 224.284 162.684 221.703 159.5 221.703Z" fill="#CCF0EA"/>
<path d="M124.91 248.602H74.9457C71.7618 248.602 69.1807 251.183 69.1807 254.367C69.1807 257.551 71.7618 260.132 74.9457 260.132H124.91C128.094 260.132 130.675 257.551 130.675 254.367C130.675 251.183 128.094 248.602 124.91 248.602Z" fill="#AAE6DD"/>
<path d="M159.5 273.586H74.9457C71.7618 273.586 69.1807 276.167 69.1807 279.351C69.1807 282.535 71.7618 285.116 74.9457 285.116H159.5C162.684 285.116 165.265 282.535 165.265 279.351C165.265 276.167 162.684 273.586 159.5 273.586Z" fill="#CCF0EA"/>
<g filter="url(#filter1_d_1113_13444)">
<path d="M226.763 18H61.4981C56.1915 18 51.8896 22.3018 51.8896 27.6084V85.259C51.8896 90.5656 56.1915 94.8675 61.4981 94.8675H226.763C232.07 94.8675 236.372 90.5656 236.372 85.259V27.6084C236.372 22.3018 232.07 18 226.763 18Z" fill="#00977F"/>
</g>
<path d="M124.913 39.1406H74.9487C71.7647 39.1406 69.1836 41.7217 69.1836 44.9057C69.1836 48.0896 71.7647 50.6707 74.9487 50.6707H124.913C128.096 50.6707 130.678 48.0896 130.678 44.9057C130.678 41.7217 128.096 39.1406 124.913 39.1406Z" fill="#AAE6DD"/>
<path d="M159.503 64.125H74.9487C71.7647 64.125 69.1836 66.7061 69.1836 69.8901C69.1836 73.074 71.7647 75.6551 74.9487 75.6551H159.503C162.687 75.6551 165.268 73.074 165.268 69.8901C165.268 66.7061 162.687 64.125 159.503 64.125Z" fill="white"/>
<defs>
<filter id="filter0_d_1113_13444" x="40.3566" y="98.7126" width="207.543" height="244.052" filterUnits="userSpaceOnUse" color-interpolation-filters="sRGB">
<feFlood flood-opacity="0" result="BackgroundImageFix"/>
<feColorMatrix in="SourceAlpha" type="matrix" values="0 0 0 0 0 0 0 0 0 0 0 0 0 0 0 0 0 0 127 0" result="hardAlpha"/>
<feOffset dy="-5.76506"/>
<feGaussianBlur stdDeviation="5.76506"/>
<feColorMatrix type="matrix" values="0 0 0 0 0.788235 0 0 0 0 0.803922 0 0 0 0 0.85098 0 0 0 0.349 0"/>
<feBlend mode="normal" in2="BackgroundImageFix" result="effect1_dropShadow_1113_13444"/>
<feBlend mode="normal" in="SourceGraphic" in2="effect1_dropShadow_1113_13444" result="shape"/>
</filter>
<filter id="filter1_d_1113_13444" x="40.3595" y="0.704819" width="207.542" height="99.9274" filterUnits="userSpaceOnUse" color-interpolation-filters="sRGB">
<feFlood flood-opacity="0" result="BackgroundImageFix"/>
<feColorMatrix in="SourceAlpha" type="matrix" values="0 0 0 0 0 0 0 0 0 0 0 0 0 0 0 0 0 0 127 0" result="hardAlpha"/>
<feOffset dy="-5.76506"/>
<feGaussianBlur stdDeviation="5.76506"/>
<feColorMatrix type="matrix" values="0 0 0 0 0.788235 0 0 0 0 0.803922 0 0 0 0 0.85098 0 0 0 0.349 0"/>
<feBlend mode="normal" in2="BackgroundImageFix" result="effect1_dropShadow_1113_13444"/>
<feBlend mode="normal" in="SourceGraphic" in2="effect1_dropShadow_1113_13444" result="shape"/>
</filter>
</defs>
</svg>
